<mxfile host="app.diagrams.net" modified="2020-09-17T18:14:13.708Z" agent="5.0 (Windows NT 10.0; Win64; x64) AppleWebKit/537.36 (KHTML, like Gecko) Chrome/85.0.4183.102 Safari/537.36" etag="tUh6ZuMIhKIlWk_xpd2y" version="13.6.2" type="github">
  <diagram id="C5RBs43oDa-KdzZeNtuy" name="Page-1">
    <mxGraphModel dx="3227" dy="818" grid="0" gridSize="10" guides="1" tooltips="1" connect="1" arrows="1" fold="1" page="1" pageScale="1" pageWidth="827" pageHeight="1169" math="0" shadow="0">
      <root>
        <mxCell id="WIyWlLk6GJQsqaUBKTNV-0" />
        <mxCell id="WIyWlLk6GJQsqaUBKTNV-1" parent="WIyWlLk6GJQsqaUBKTNV-0" />
        <mxCell id="9s_A67PmoYcY9HKlhgof-13" style="rounded=0;orthogonalLoop=1;jettySize=auto;html=1;exitX=0.5;exitY=1;exitDx=0;exitDy=0;entryX=0.5;entryY=0;entryDx=0;entryDy=0;" edge="1" parent="WIyWlLk6GJQsqaUBKTNV-1" source="9s_A67PmoYcY9HKlhgof-0" target="9s_A67PmoYcY9HKlhgof-1">
          <mxGeometry relative="1" as="geometry" />
        </mxCell>
        <mxCell id="9s_A67PmoYcY9HKlhgof-28" value="&lt;font style=&quot;font-size: 18px&quot;&gt;26...45&lt;/font&gt;" style="edgeLabel;html=1;align=center;verticalAlign=middle;resizable=0;points=[];" vertex="1" connectable="0" parent="9s_A67PmoYcY9HKlhgof-13">
          <mxGeometry x="0.1226" y="-5" relative="1" as="geometry">
            <mxPoint x="-24.72" y="-8.61" as="offset" />
          </mxGeometry>
        </mxCell>
        <mxCell id="9s_A67PmoYcY9HKlhgof-15" style="edgeStyle=none;rounded=0;orthogonalLoop=1;jettySize=auto;html=1;entryX=0.5;entryY=0;entryDx=0;entryDy=0;" edge="1" parent="WIyWlLk6GJQsqaUBKTNV-1" source="9s_A67PmoYcY9HKlhgof-0" target="9s_A67PmoYcY9HKlhgof-2">
          <mxGeometry relative="1" as="geometry" />
        </mxCell>
        <mxCell id="9s_A67PmoYcY9HKlhgof-29" value="&lt;font style=&quot;font-size: 18px&quot;&gt;46...50&lt;/font&gt;" style="edgeLabel;html=1;align=center;verticalAlign=middle;resizable=0;points=[];" vertex="1" connectable="0" parent="9s_A67PmoYcY9HKlhgof-15">
          <mxGeometry x="0.1903" y="-1" relative="1" as="geometry">
            <mxPoint x="-28.98" as="offset" />
          </mxGeometry>
        </mxCell>
        <mxCell id="9s_A67PmoYcY9HKlhgof-16" style="edgeStyle=none;rounded=0;orthogonalLoop=1;jettySize=auto;html=1;entryX=0.608;entryY=-0.017;entryDx=0;entryDy=0;entryPerimeter=0;exitX=0.5;exitY=1;exitDx=0;exitDy=0;" edge="1" parent="WIyWlLk6GJQsqaUBKTNV-1" source="9s_A67PmoYcY9HKlhgof-0" target="9s_A67PmoYcY9HKlhgof-3">
          <mxGeometry relative="1" as="geometry" />
        </mxCell>
        <mxCell id="9s_A67PmoYcY9HKlhgof-0" value="&lt;font style=&quot;font-size: 18px&quot;&gt;Salary&lt;/font&gt;" style="rounded=0;whiteSpace=wrap;html=1;" vertex="1" parent="WIyWlLk6GJQsqaUBKTNV-1">
          <mxGeometry x="430" y="90" width="120" height="60" as="geometry" />
        </mxCell>
        <mxCell id="9s_A67PmoYcY9HKlhgof-17" value="&lt;font style=&quot;font-size: 18px&quot;&gt;Sales&lt;/font&gt;" style="edgeStyle=none;rounded=0;orthogonalLoop=1;jettySize=auto;html=1;entryX=0.5;entryY=0;entryDx=0;entryDy=0;" edge="1" parent="WIyWlLk6GJQsqaUBKTNV-1" target="9s_A67PmoYcY9HKlhgof-4">
          <mxGeometry relative="1" as="geometry">
            <mxPoint x="200" y="340" as="sourcePoint" />
          </mxGeometry>
        </mxCell>
        <mxCell id="9s_A67PmoYcY9HKlhgof-18" value="&lt;font style=&quot;font-size: 18px&quot;&gt;Marketing&lt;/font&gt;" style="edgeStyle=none;rounded=0;orthogonalLoop=1;jettySize=auto;html=1;entryX=0.5;entryY=0;entryDx=0;entryDy=0;" edge="1" parent="WIyWlLk6GJQsqaUBKTNV-1" source="9s_A67PmoYcY9HKlhgof-1" target="9s_A67PmoYcY9HKlhgof-5">
          <mxGeometry relative="1" as="geometry" />
        </mxCell>
        <mxCell id="9s_A67PmoYcY9HKlhgof-19" value="&lt;font style=&quot;font-size: 18px&quot;&gt;Secretary&lt;/font&gt;" style="edgeStyle=none;rounded=0;orthogonalLoop=1;jettySize=auto;html=1;entryX=0.5;entryY=0;entryDx=0;entryDy=0;" edge="1" parent="WIyWlLk6GJQsqaUBKTNV-1" target="9s_A67PmoYcY9HKlhgof-6">
          <mxGeometry relative="1" as="geometry">
            <mxPoint x="210" y="340" as="sourcePoint" />
          </mxGeometry>
        </mxCell>
        <mxCell id="9s_A67PmoYcY9HKlhgof-1" value="&lt;font style=&quot;font-size: 18px&quot;&gt;Department&lt;/font&gt;" style="rounded=0;whiteSpace=wrap;html=1;" vertex="1" parent="WIyWlLk6GJQsqaUBKTNV-1">
          <mxGeometry x="140" y="280" width="120" height="60" as="geometry" />
        </mxCell>
        <mxCell id="9s_A67PmoYcY9HKlhgof-24" value="&lt;font style=&quot;font-size: 18px&quot;&gt;36...50&lt;/font&gt;" style="edgeStyle=none;rounded=0;orthogonalLoop=1;jettySize=auto;html=1;entryX=0.417;entryY=0;entryDx=0;entryDy=0;entryPerimeter=0;exitX=0.5;exitY=1;exitDx=0;exitDy=0;" edge="1" parent="WIyWlLk6GJQsqaUBKTNV-1" source="9s_A67PmoYcY9HKlhgof-2" target="9s_A67PmoYcY9HKlhgof-11">
          <mxGeometry relative="1" as="geometry" />
        </mxCell>
        <mxCell id="9s_A67PmoYcY9HKlhgof-25" value="&lt;font style=&quot;font-size: 18px&quot;&gt;31...35&lt;/font&gt;" style="edgeStyle=none;rounded=0;orthogonalLoop=1;jettySize=auto;html=1;entryX=0.5;entryY=0;entryDx=0;entryDy=0;exitX=0.5;exitY=1;exitDx=0;exitDy=0;" edge="1" parent="WIyWlLk6GJQsqaUBKTNV-1" source="9s_A67PmoYcY9HKlhgof-2" target="9s_A67PmoYcY9HKlhgof-10">
          <mxGeometry relative="1" as="geometry" />
        </mxCell>
        <mxCell id="9s_A67PmoYcY9HKlhgof-26" value="&lt;font style=&quot;font-size: 18px&quot;&gt;21...30&lt;/font&gt;" style="edgeStyle=none;rounded=0;orthogonalLoop=1;jettySize=auto;html=1;entryX=0.5;entryY=0;entryDx=0;entryDy=0;exitX=0.5;exitY=1;exitDx=0;exitDy=0;" edge="1" parent="WIyWlLk6GJQsqaUBKTNV-1" source="9s_A67PmoYcY9HKlhgof-2" target="9s_A67PmoYcY9HKlhgof-7">
          <mxGeometry relative="1" as="geometry" />
        </mxCell>
        <mxCell id="9s_A67PmoYcY9HKlhgof-2" value="&lt;font style=&quot;font-size: 18px&quot;&gt;Age&lt;/font&gt;" style="rounded=0;whiteSpace=wrap;html=1;" vertex="1" parent="WIyWlLk6GJQsqaUBKTNV-1">
          <mxGeometry x="460" y="290" width="120" height="60" as="geometry" />
        </mxCell>
        <mxCell id="9s_A67PmoYcY9HKlhgof-3" value="&lt;font style=&quot;font-size: 18px&quot;&gt;Senior&lt;/font&gt;" style="rounded=0;whiteSpace=wrap;html=1;" vertex="1" parent="WIyWlLk6GJQsqaUBKTNV-1">
          <mxGeometry x="730" y="290" width="120" height="60" as="geometry" />
        </mxCell>
        <mxCell id="9s_A67PmoYcY9HKlhgof-4" value="&lt;font style=&quot;font-size: 18px&quot;&gt;Junior&lt;/font&gt;" style="rounded=0;whiteSpace=wrap;html=1;" vertex="1" parent="WIyWlLk6GJQsqaUBKTNV-1">
          <mxGeometry x="-70" y="440" width="120" height="60" as="geometry" />
        </mxCell>
        <mxCell id="9s_A67PmoYcY9HKlhgof-5" value="&lt;font style=&quot;font-size: 18px&quot;&gt;Junior&lt;/font&gt;" style="rounded=0;whiteSpace=wrap;html=1;" vertex="1" parent="WIyWlLk6GJQsqaUBKTNV-1">
          <mxGeometry x="190" y="440" width="120" height="60" as="geometry" />
        </mxCell>
        <mxCell id="9s_A67PmoYcY9HKlhgof-20" value="&lt;font style=&quot;font-size: 18px&quot;&gt;21...30&lt;/font&gt;" style="edgeStyle=none;rounded=0;orthogonalLoop=1;jettySize=auto;html=1;exitX=0.5;exitY=1;exitDx=0;exitDy=0;entryX=0.5;entryY=0;entryDx=0;entryDy=0;" edge="1" parent="WIyWlLk6GJQsqaUBKTNV-1" source="9s_A67PmoYcY9HKlhgof-6" target="9s_A67PmoYcY9HKlhgof-8">
          <mxGeometry relative="1" as="geometry">
            <mxPoint x="200" y="520" as="targetPoint" />
          </mxGeometry>
        </mxCell>
        <mxCell id="9s_A67PmoYcY9HKlhgof-22" value="&lt;font style=&quot;font-size: 18px&quot;&gt;36...50&lt;/font&gt;" style="edgeStyle=none;rounded=0;orthogonalLoop=1;jettySize=auto;html=1;" edge="1" parent="WIyWlLk6GJQsqaUBKTNV-1" source="9s_A67PmoYcY9HKlhgof-6" target="9s_A67PmoYcY9HKlhgof-9">
          <mxGeometry relative="1" as="geometry" />
        </mxCell>
        <mxCell id="9s_A67PmoYcY9HKlhgof-6" value="&lt;font style=&quot;font-size: 18px&quot;&gt;Age&lt;/font&gt;" style="rounded=0;whiteSpace=wrap;html=1;" vertex="1" parent="WIyWlLk6GJQsqaUBKTNV-1">
          <mxGeometry x="460" y="440" width="120" height="60" as="geometry" />
        </mxCell>
        <mxCell id="9s_A67PmoYcY9HKlhgof-7" value="&lt;font style=&quot;font-size: 18px&quot;&gt;Junior&lt;/font&gt;" style="rounded=0;whiteSpace=wrap;html=1;" vertex="1" parent="WIyWlLk6GJQsqaUBKTNV-1">
          <mxGeometry x="740" y="380" width="120" height="60" as="geometry" />
        </mxCell>
        <mxCell id="9s_A67PmoYcY9HKlhgof-8" value="&lt;font style=&quot;font-size: 18px&quot;&gt;Junior&lt;/font&gt;" style="rounded=0;whiteSpace=wrap;html=1;" vertex="1" parent="WIyWlLk6GJQsqaUBKTNV-1">
          <mxGeometry x="280" y="620" width="120" height="60" as="geometry" />
        </mxCell>
        <mxCell id="9s_A67PmoYcY9HKlhgof-9" value="&lt;font style=&quot;font-size: 18px&quot;&gt;Senior&lt;/font&gt;" style="rounded=0;whiteSpace=wrap;html=1;" vertex="1" parent="WIyWlLk6GJQsqaUBKTNV-1">
          <mxGeometry x="470" y="620" width="120" height="60" as="geometry" />
        </mxCell>
        <mxCell id="9s_A67PmoYcY9HKlhgof-10" value="&lt;font style=&quot;font-size: 18px&quot;&gt;Senior&lt;/font&gt;" style="rounded=0;whiteSpace=wrap;html=1;" vertex="1" parent="WIyWlLk6GJQsqaUBKTNV-1">
          <mxGeometry x="740" y="500" width="120" height="60" as="geometry" />
        </mxCell>
        <mxCell id="9s_A67PmoYcY9HKlhgof-11" value="&lt;font style=&quot;font-size: 18px&quot;&gt;Senior&lt;/font&gt;" style="rounded=0;whiteSpace=wrap;html=1;" vertex="1" parent="WIyWlLk6GJQsqaUBKTNV-1">
          <mxGeometry x="740" y="620" width="120" height="60" as="geometry" />
        </mxCell>
        <mxCell id="9s_A67PmoYcY9HKlhgof-30" value="&lt;font style=&quot;font-size: 18px&quot;&gt;66...70&lt;/font&gt;" style="text;html=1;align=center;verticalAlign=middle;resizable=0;points=[];autosize=1;" vertex="1" parent="WIyWlLk6GJQsqaUBKTNV-1">
          <mxGeometry x="630" y="200" width="70" height="20" as="geometry" />
        </mxCell>
      </root>
    </mxGraphModel>
  </diagram>
</mxfile>
